<svg id="Calque_1" data-name="Calque 1" xmlns="http://www.w3.org/2000/svg" viewBox="0 0 101.79 77.4"><defs><style>.cls-1{fill:#fff;}.cls-2{font-size:19.62px;fill:#be1622;font-family:Elephant-Regular, Elephant;}</style></defs><path class="cls-1" d="M284.81,244.37a72.47,72.47,0,0,1-8.21-.06,8.67,8.67,0,0,0-8.22,3.37c-1.34,1.58-3.68,2.72-4.2,4.46s.59,4.11,1,6.19l0,.18a1.67,1.67,0,0,0,1.75,1.58c3.12.34,6.21,1,9.33,1.29a62.36,62.36,0,0,0,10.45.7c5.49-.37,10.95-1.31,16.4-2.08a1.93,1.93,0,0,0,1.26-1.15,53.35,53.35,0,0,0,1.21-5.72,2.38,2.38,0,0,0-.52-1.78q-3.09-3.1-6.35-6a4,4,0,0,0-2.32-.93C292.54,244.32,288.67,244.37,284.81,244.37Z" transform="translate(-233.95 -212.19)"/><path class="cls-1" d="M263.81,246c-.1-1.11-.1-1.77-.23-2.4a19.4,19.4,0,0,0-11-14.06c-1.64-.8-1.9-2-.67-3.3,2.5-2.63,5.06-5.2,7.52-7.87,2-2.19,4.48-2.83,7.38-2.81q18.1.12,36.23,0a9.33,9.33,0,0,1,7.32,3c2.36,2.52,4.73,5,7.1,7.53,1.58,1.67,1.41,2.61-.61,3.6a19.35,19.35,0,0,0-10.49,12.61,29,29,0,0,0-.55,3.23c5.62-8.62,13.4-12.67,23.8-12.15a8.88,8.88,0,0,0-6.25-3.22c-.28-1.95.47-2.89,2.35-3a20,20,0,0,0,3.12-.67,3.18,3.18,0,0,0,2-3.38c-.2-1.48-1.44-1.14-2.38-1.22a5.72,5.72,0,0,0-5.34,2.59c-1.38,1.87-1.87,1.89-3.34.26-2.77-3.1-5.52-6.24-8.4-9.24a10.35,10.35,0,0,0-7.67-3.22q-18.75,0-37.49,0a11,11,0,0,0-8.41,3.58c-2.72,2.92-5.35,5.92-8,8.89-1.41,1.6-2.14,1.59-3.37-.16a5.8,5.8,0,0,0-5.1-2.72c-2.66,0-3.18.67-2.16,3.07a3.42,3.42,0,0,0,1.73,1.55,9.1,9.1,0,0,0,2.92.69c1.86.14,2.61,1.1,2.49,3-2.37.37-4.65,1-6.29,3.16C252.89,233.08,258.76,238.36,263.81,246Z" transform="translate(-233.95 -212.19)"/><path class="cls-1" d="M267.46,244c1.26-.65,2.68-2,4.15-2,7.48-.26,15-.17,22.46-.24,3.07,0,6.06.07,8,2.51l8.2-13.66h-51Z" transform="translate(-233.95 -212.19)"/><path class="cls-1" d="M283,264.73l0-.41a4.37,4.37,0,0,0-.83-.25c-5-.51-10-1.05-15.06-1.49a3.9,3.9,0,0,1-3.19-1.56,6.06,6.06,0,0,0-4.67-2.48,58.7,58.7,0,0,1-10.31-1.8c-5.85-1.66-9.67-6.42-9.53-11.69a53.47,53.47,0,0,1,1.16-7.22c-3.75,3-6.54,6.75-6.57,12,0,5,1.41,9.36,5.87,12.27l-4.46-1.52v10.58c1.95.47,3.17.08,4-1.84a13.58,13.58,0,0,1,3.12-3.6,2.78,2.78,0,0,1,1.73-.66c5.53-.15,11.06-.3,16.59-.34C268.22,264.69,275.59,264.73,283,264.73Z" transform="translate(-233.95 -212.19)"/><path class="cls-1" d="M328.75,237.74c.33.95.64,1.76.9,2.59,1.81,5.86.37,10.52-4.35,14-3.56,2.66-7.73,3.49-12,3.89-3.15.3-6.33.33-8.3,3.5-.31.5-1.34.68-2.06.76-3.83.43-7.68.78-11.51,1.17-1.61.17-3.22.38-4.83.57a.63.63,0,0,0,.54.35c12.37.15,24.75.34,37.12.4a5.19,5.19,0,0,1,4.2,1.82,8.83,8.83,0,0,1,1.91,2.55c.76,2.17,2.23,2.21,4,1.8v-10.6l-4.69,1.54C338.94,256.42,336.73,242.71,328.75,237.74Z" transform="translate(-233.95 -212.19)"/><path class="cls-1" d="M261.18,255.29c-.66-.78-1-1.26-1.41-1.66-4.43-4.38-8.84-8.78-13.34-13.09-.62-.59-2-1.23-2.5-.94a4.25,4.25,0,0,0-2,2.61c-.65,3.63.78,6.61,3.55,8.95C249.93,254.88,255.23,255.38,261.18,255.29Z" transform="translate(-233.95 -212.19)"/><path class="cls-1" d="M308.45,255.09c5.85.8,12-.8,15.78-4.07a9.31,9.31,0,0,0,3.45-9.18c-.48-2.5-2.57-3.17-4.38-1.46q-5.19,4.89-10.28,9.87C311.5,251.73,310.1,253.33,308.45,255.09Z" transform="translate(-233.95 -212.19)"/><path class="cls-1" d="M329.79,273.62c.11-2.69-1.38-4.41-3-5.92-2.82-2.55-6.22-.59-9.44-1.3a51,51,0,0,0,.07,5.46c.06.63.83,1.67,1.3,1.69C322.35,273.69,326,273.62,329.79,273.62Z" transform="translate(-233.95 -212.19)"/><path class="cls-1" d="M239.93,273.62c3.65,0,7.33.05,11-.06a1.9,1.9,0,0,0,1.29-1.33c.15-1.86.06-3.75.06-5.74h-6.07C243.13,266.49,239.63,270.36,239.93,273.62Z" transform="translate(-233.95 -212.19)"/><text class="cls-2" transform="translate(12.16 71.4)">RakTak</text></svg>