<svg width="128" height="140" viewBox="0 0 128 140" fill="none" xmlns="http://www.w3.org/2000/svg">
<path d="M26.7788 75.0352L44.8484 73.1724L24.5434 93.2911C19.5137 90.9626 19.5137 84.722 19.5137 84.722C19.5137 84.722 26.7249 84.2324 31.2889 83.301C27.2838 80.9724 26.7788 75.0352 26.7788 75.0352Z" fill="#F5F5F5"/>
<path d="M44.8484 73.1724L26.7788 75.0352C26.7788 75.0352 27.9283 81.4726 31.9334 83.8012C19.5137 84.722 19.5137 84.722 19.5137 84.722C19.5137 84.722 19.5137 90.9626 24.5434 93.2911" stroke="black" stroke-width="2"/>
<path d="M77.4172 32.7792L115.957 37.1095C115.21 37.6727 114.301 38.4211 113.233 39.4096C109.852 42.5361 104.859 48.0751 98.287 57.7767C94.4353 63.463 89.1352 71.3541 84.7988 77.8227C82.6305 81.0572 80.7028 83.9364 79.3172 86.007C78.6244 87.0423 78.0671 87.8754 77.683 88.4498L77.385 88.8954L37.5751 88.8954L55.3576 60.6556L77.4172 32.7792Z" fill="#E1E1E1" stroke="black" stroke-width="2"/>
<mask id="path-4-inside-1" fill="white">
<path d="M118.427 28.6642C118.427 28.6642 110.42 34.3163 96.5246 55.5065C88.5801 67.622 75.5645 86.1168 75.5645 86.1168L33.6444 86.1168L75.0935 24.8961L118.427 28.6642Z"/>
</mask>
<path d="M118.427 28.6642C118.427 28.6642 110.42 34.3163 96.5246 55.5065C88.5801 67.622 75.5645 86.1168 75.5645 86.1168L33.6444 86.1168L75.0935 24.8961L118.427 28.6642Z" fill="#F5F5F5"/>
<path d="M118.427 28.6642L119.003 29.4812L121.237 27.9047L118.513 27.6679L118.427 28.6642ZM75.5645 86.1168L75.5645 87.1168L76.0836 87.1168L76.3823 86.6923L75.5645 86.1168ZM33.6444 86.1168L32.8164 85.5562L31.7598 87.1168L33.6444 87.1168L33.6444 86.1168ZM75.0935 24.8961L75.1801 23.8999L74.5948 23.849L74.2654 24.3355L75.0935 24.8961ZM96.5246 55.5065L97.3608 56.0548L96.5246 55.5065ZM75.5645 85.1168L33.6444 85.1168L33.6444 87.1168L75.5645 87.1168L75.5645 85.1168ZM34.4725 86.6774L75.9215 25.4568L74.2654 24.3355L32.8164 85.5562L34.4725 86.6774ZM75.0068 25.8924L118.34 29.6604L118.513 27.6679L75.1801 23.8999L75.0068 25.8924ZM118.427 28.6642C117.85 27.8472 117.85 27.8475 117.849 27.8478C117.849 27.8479 117.849 27.8483 117.848 27.8485C117.847 27.8491 117.847 27.8497 117.846 27.8504C117.844 27.8518 117.841 27.8536 117.838 27.8557C117.832 27.8599 117.824 27.8656 117.815 27.8727C117.795 27.8869 117.768 27.9069 117.733 27.9331C117.663 27.9854 117.563 28.0623 117.433 28.1661C117.172 28.3737 116.791 28.6891 116.294 29.1313C115.3 30.0158 113.841 31.408 111.951 33.4618C108.17 37.5691 102.661 44.3239 95.6883 54.9581L97.3608 56.0548C104.283 45.4989 109.725 38.8326 113.422 34.8163C115.27 32.8082 116.682 31.4631 117.623 30.6256C118.094 30.2068 118.447 29.915 118.678 29.7307C118.794 29.6386 118.879 29.5734 118.934 29.5326C118.961 29.5122 118.98 29.4979 118.992 29.4894C118.998 29.4852 119.002 29.4824 119.004 29.481C119.005 29.4804 119.005 29.48 119.005 29.4801C119.005 29.4801 119.005 29.4802 119.005 29.4803C119.004 29.4804 119.004 29.4806 119.004 29.4807C119.004 29.4809 119.003 29.4812 118.427 28.6642ZM95.6883 54.9581C91.7232 61.005 86.4891 68.6491 82.243 74.786C80.1206 77.8535 78.2463 80.5426 76.9027 82.4648C76.2309 83.4259 75.6918 84.1952 75.3207 84.7241C75.1351 84.9886 74.9916 85.193 74.8944 85.3312C74.8459 85.4003 74.8089 85.4529 74.7841 85.4882C74.7717 85.5058 74.7623 85.5191 74.7561 85.528C74.7529 85.5324 74.7506 85.5358 74.749 85.538C74.7483 85.5391 74.7477 85.5399 74.7473 85.5405C74.7471 85.5408 74.7469 85.541 74.7468 85.5411C74.7467 85.5412 74.7467 85.5413 75.5645 86.1168C76.3823 86.6923 76.3823 86.6923 76.3825 86.6921C76.3826 86.692 76.3827 86.6917 76.3829 86.6915C76.3833 86.6909 76.3839 86.69 76.3847 86.6889C76.3863 86.6866 76.3887 86.6832 76.3918 86.6788C76.3982 86.6698 76.4076 86.6564 76.4201 86.6386C76.445 86.6032 76.4821 86.5504 76.5308 86.4811C76.6282 86.3425 76.772 86.1377 76.9579 85.8728C77.3296 85.343 77.8694 84.5727 78.5419 83.6106C79.887 81.6864 81.7631 78.9946 83.8877 75.924C88.1355 69.7845 93.3814 62.1235 97.3608 56.0548L95.6883 54.9581Z" fill="black" mask="url(#path-4-inside-1)"/>
<path d="M110.841 28.6642L117.954 28.6642C117.954 28.6642 115.761 30.5441 110.841 36.2004" stroke="black" stroke-width="2"/>
<path d="M74.324 21.8392L115.505 21.8391L73.7955 83.0127L32.6147 83.0127L74.324 21.8392Z" fill="white" stroke="black"/>
<path d="M111.832 28.6638L116.072 22.0695L74.1514 22.0697L38.8255 73.881L32.2313 83.5129L34.5864 83.5129" stroke="black" stroke-width="2"/>
<path d="M72.0035 79.2662L39.3004 79.2662L75.8294 25.6288L108.532 25.6288L72.0035 79.2662Z" fill="white" stroke="black"/>
<path d="M70.0163 41.7096C74.4668 39.8926 78.9664 39.4597 82.6329 40.2044C86.3035 40.95 89.0801 42.8574 90.23 45.6739C91.3799 48.4904 90.7316 51.796 88.6316 54.8976C86.5339 57.9956 83.017 60.8355 78.5665 62.6525C74.116 64.4694 69.6164 64.9024 65.9499 64.1577C62.2793 63.4121 59.5027 61.5047 58.3528 58.6882C57.2029 55.8717 57.8512 52.5661 59.9512 49.4645C62.0489 46.3665 65.5658 43.5266 70.0163 41.7096Z" stroke="black"/>
<path d="M15.7456 114.366V124.294H40.3352L41.7041 120.187C42.0258 119.223 42.6339 118.379 43.4476 117.769L63.8511 102.466C64.315 102.118 64.7148 101.692 65.0327 101.207L73.2092 88.7343H56.7237L56.3507 89.2911C55.4225 90.6766 53.8646 91.5081 52.1968 91.5081H42.1981L55.1051 76.1715C56.7481 74.2192 56.5824 71.324 54.7273 69.5719C52.8333 67.7832 49.86 67.8256 48.0179 69.6678L24.5324 93.1532C18.9063 98.7793 15.7456 106.41 15.7456 114.366Z" fill="white"/>
<path d="M40.6484 91.9308L41.1803 91.3229C42.5934 91.3229 46.7384 92.2649 50.1297 92.2649C53.5209 92.2649 55.9388 90.3809 56.7239 89.4388H72.7383L64.2601 102.156L41.6514 119.113L40.2384 124.294H16.2167C15.7457 119.113 15.7454 121.468 15.7456 116.287C20.2777 114.513 28.1894 115.674 32.2311 116.287C37.8505 117.138 42.1225 112.989 45.4194 110.634C46.3013 110.004 48.7012 108.285 51.418 106.349C55.2777 103.598 54.84 97.6817 50.6006 95.562L42.0795 95.2464C40.3971 95.1841 39.5398 93.1978 40.6484 91.9308Z" fill="#E1E1E1"/>
<path d="M15.7456 114.366V124.765H40.2383L41.7099 120.215C42.0275 119.233 42.6414 118.373 43.4672 117.754L63.8681 102.453C64.3209 102.114 64.7128 101.699 65.027 101.229L73.2092 88.9682H56.7237L56.3635 89.4605C55.4219 90.7474 53.9229 91.5081 52.3283 91.5081H42.1981L55.1051 76.1715C56.7481 74.2192 56.5824 71.324 54.7273 69.5719C52.8333 67.7832 49.86 67.8256 48.0179 69.6678L24.5324 93.1532C18.9063 98.7793 15.7456 106.41 15.7456 114.366Z" stroke="black" stroke-width="2"/>
<path d="M44.0068 131.359V124.765H10.5649L9.15189 131.359" stroke="black" stroke-width="2"/>
<path d="M99.1032 25.5886C99.1934 25.9407 99.3078 26.288 99.4472 26.6294C100.344 28.8263 102.151 30.4752 104.524 31.5058" stroke="black"/>
<path d="M83.2082 25.5584C81.1052 27.6801 78.3383 29.5417 75.0954 30.8657C73.9864 31.3184 72.8732 31.6873 71.7689 31.975" stroke="black"/>
<path d="M62.9561 79.1648C65.1316 76.7117 68.1757 74.5438 71.8214 73.0554C73.5832 72.3361 75.3558 71.8285 77.0864 71.5218" stroke="black"/>
</svg>
